<svg width="1440" height="900" viewBox="0 0 1440 900" fill="none" xmlns="http://www.w3.org/2000/svg">
  <defs>
    <linearGradient id="bg" x1="86" y1="42" x2="1354" y2="858" gradientUnits="userSpaceOnUse">
      <stop stop-color="#F8FBFD"/>
      <stop offset="1" stop-color="#EDF4F7"/>
    </linearGradient>
    <linearGradient id="sync" x1="388" y1="454" x2="1052" y2="454" gradientUnits="userSpaceOnUse">
      <stop stop-color="#F97316"/>
      <stop offset="0.5" stop-color="#0EA5E9"/>
      <stop offset="1" stop-color="#22C55E"/>
    </linearGradient>
  </defs>

  <rect width="1440" height="900" rx="40" fill="url(#bg)"/>
  <circle cx="1304" cy="102" r="90" fill="#FFFFFF" fill-opacity="0.62"/>
  <text x="1276" y="112" fill="#0F172A" fill-opacity="0.08" font-family="Georgia, 'Times New Roman', serif" font-size="92" font-weight="700" text-anchor="middle">GGG</text>

  <rect x="92" y="70" width="1256" height="112" rx="30" fill="#111827"/>
  <text x="144" y="118" fill="#FFFFFF" font-family="'Segoe UI', Arial, sans-serif" font-size="34" font-weight="700">Part 1 · Remote Sync Flow</text>
  <text x="144" y="151" fill="#CBD5E1" font-family="'Segoe UI', Arial, sans-serif" font-size="18">See how local work connects to origin through fetch, pull, and push</text>

  <g>
    <rect x="130" y="242" width="360" height="430" rx="32" fill="#FFFFFF" stroke="#E2E8F0" stroke-width="2"/>
    <rect x="166" y="278" width="116" height="34" rx="17" fill="#FFF1E7"/>
    <text x="224" y="300" fill="#C2410C" font-family="'Segoe UI', Arial, sans-serif" font-size="16" font-weight="700" text-anchor="middle">LOCAL</text>
    <text x="166" y="350" fill="#0F172A" font-family="'Segoe UI', Arial, sans-serif" font-size="30" font-weight="700">Your Repository</text>
    <rect x="166" y="394" width="286" height="212" rx="24" fill="#F8FAFC" stroke="#E2E8F0" stroke-width="2"/>
    <circle cx="214" cy="492" r="16" fill="#F97316"/>
    <circle cx="286" cy="456" r="16" fill="#F97316"/>
    <circle cx="358" cy="514" r="16" fill="#F97316"/>
    <circle cx="406" cy="472" r="16" fill="#FDBA74"/>
    <path d="M214 492L286 456L358 514L406 472" stroke="#F97316" stroke-width="8" stroke-linecap="round" stroke-linejoin="round"/>
    <text x="166" y="636" fill="#475569" font-family="'Segoe UI', Arial, sans-serif" font-size="16">Branch pointers, staged work, recent commits.</text>
  </g>

  <g>
    <rect x="950" y="242" width="360" height="430" rx="32" fill="#FFFFFF" stroke="#E2E8F0" stroke-width="2"/>
    <rect x="986" y="278" width="124" height="34" rx="17" fill="#ECFDF3"/>
    <text x="1048" y="300" fill="#15803D" font-family="'Segoe UI', Arial, sans-serif" font-size="16" font-weight="700" text-anchor="middle">REMOTE</text>
    <text x="986" y="350" fill="#0F172A" font-family="'Segoe UI', Arial, sans-serif" font-size="30" font-weight="700">origin / main</text>
    <rect x="986" y="394" width="286" height="212" rx="24" fill="#F0FDF4" stroke="#BBF7D0" stroke-width="2"/>
    <circle cx="1038" cy="462" r="16" fill="#22C55E"/>
    <circle cx="1110" cy="516" r="16" fill="#22C55E"/>
    <circle cx="1180" cy="474" r="16" fill="#86EFAC"/>
    <circle cx="1236" cy="528" r="16" fill="#BBF7D0"/>
    <path d="M1038 462L1110 516L1180 474L1236 528" stroke="#22C55E" stroke-width="8" stroke-linecap="round" stroke-linejoin="round"/>
    <text x="986" y="636" fill="#475569" font-family="'Segoe UI', Arial, sans-serif" font-size="16">Shared history and collaboration baseline.</text>
  </g>

  <g>
    <path d="M490 396H950" stroke="url(#sync)" stroke-width="12" stroke-linecap="round"/>
    <path d="M950 518H490" stroke="#CBD5E1" stroke-width="10" stroke-linecap="round" stroke-dasharray="20 16"/>
    <circle cx="720" cy="396" r="18" fill="#0EA5E9"/>
    <circle cx="720" cy="518" r="18" fill="#94A3B8"/>
    <rect x="624" y="340" width="192" height="40" rx="20" fill="#E0F2FE"/>
    <text x="720" y="365" fill="#0369A1" font-family="'Segoe UI', Arial, sans-serif" font-size="18" font-weight="700" text-anchor="middle">push</text>
    <rect x="602" y="538" width="236" height="40" rx="20" fill="#F1F5F9"/>
    <text x="720" y="563" fill="#475569" font-family="'Segoe UI', Arial, sans-serif" font-size="18" font-weight="700" text-anchor="middle">fetch / pull</text>
  </g>

  <g>
    <rect x="530" y="646" width="380" height="146" rx="28" fill="#FFFFFF" stroke="#E2E8F0" stroke-width="2"/>
    <text x="570" y="694" fill="#0F172A" font-family="'Segoe UI', Arial, sans-serif" font-size="24" font-weight="700">Sync Signals</text>
    <text x="570" y="730" fill="#475569" font-family="'Segoe UI', Arial, sans-serif" font-size="17">Ahead: local has extra commits</text>
    <text x="570" y="758" fill="#475569" font-family="'Segoe UI', Arial, sans-serif" font-size="17">Behind: remote has updates you should fetch first</text>
  </g>
</svg>
