<svg width="1440" height="900" viewBox="0 0 1440 900" fill="none" xmlns="http://www.w3.org/2000/svg">
  <defs>
    <linearGradient id="bg" x1="86" y1="48" x2="1354" y2="842" gradientUnits="userSpaceOnUse">
      <stop stop-color="#F8FBFD"/>
      <stop offset="1" stop-color="#EEF4F8"/>
    </linearGradient>
    <linearGradient id="header" x1="90" y1="72" x2="1350" y2="72" gradientUnits="userSpaceOnUse">
      <stop stop-color="#111827"/>
      <stop offset="1" stop-color="#1F2937"/>
    </linearGradient>
    <filter id="shadow" x="0" y="0" width="1440" height="900" filterUnits="userSpaceOnUse" color-interpolation-filters="sRGB">
      <feDropShadow dx="0" dy="18" stdDeviation="24" flood-color="#0F172A" flood-opacity="0.08"/>
    </filter>
  </defs>

  <rect width="1440" height="900" rx="40" fill="url(#bg)"/>
  <text x="1272" y="112" fill="#0F172A" fill-opacity="0.08" font-family="Georgia, 'Times New Roman', serif" font-size="92" font-weight="700" text-anchor="middle">GGG</text>
  <circle cx="1320" cy="110" r="88" fill="#FFFFFF" fill-opacity="0.6"/>
  <circle cx="118" cy="798" r="70" fill="#FFFFFF" fill-opacity="0.5"/>

  <g filter="url(#shadow)">
    <rect x="90" y="70" width="1260" height="120" rx="30" fill="url(#header)"/>
  </g>
  <text x="140" y="118" fill="#FFFFFF" font-family="'Segoe UI', Arial, sans-serif" font-size="34" font-weight="700">Part 1 · Git Setup Overview</text>
  <text x="140" y="152" fill="#CBD5E1" font-family="'Segoe UI', Arial, sans-serif" font-size="18">From zero to a usable local + remote Git environment</text>

  <g>
    <rect x="112" y="246" width="476" height="416" rx="30" fill="#FFFFFF" stroke="#E2E8F0" stroke-width="2"/>
    <rect x="148" y="286" width="404" height="252" rx="24" fill="#0F172A"/>
    <rect x="148" y="286" width="404" height="44" rx="24" fill="#111827"/>
    <circle cx="180" cy="308" r="7" fill="#FB7185"/>
    <circle cx="206" cy="308" r="7" fill="#FBBF24"/>
    <circle cx="232" cy="308" r="7" fill="#34D399"/>
    <text x="264" y="314" fill="#E2E8F0" font-family="'Segoe UI', Arial, sans-serif" font-size="16">terminal</text>
    <text x="174" y="376" fill="#F8FAFC" font-family="'Consolas', 'Courier New', monospace" font-size="18">git --version</text>
    <text x="174" y="416" fill="#38BDF8" font-family="'Consolas', 'Courier New', monospace" font-size="18">git config --global user.name</text>
    <text x="174" y="456" fill="#38BDF8" font-family="'Consolas', 'Courier New', monospace" font-size="18">git config --global user.email</text>
    <text x="174" y="496" fill="#F97316" font-family="'Consolas', 'Courier New', monospace" font-size="18">ssh-keygen -t ed25519</text>
    <text x="148" y="594" fill="#0F172A" font-family="'Segoe UI', Arial, sans-serif" font-size="26" font-weight="700">Developer Workstation</text>
    <text x="148" y="628" fill="#475569" font-family="'Segoe UI', Arial, sans-serif" font-size="16">Terminal, editor, Git binary, identity config, SSH setup.</text>
  </g>

  <g>
    <rect x="642" y="246" width="272" height="188" rx="28" fill="#FFFFFF" stroke="#E2E8F0" stroke-width="2"/>
    <rect x="674" y="282" width="112" height="34" rx="17" fill="#FFF1E7"/>
    <text x="730" y="304" fill="#C2410C" font-family="'Segoe UI', Arial, sans-serif" font-size="16" font-weight="700" text-anchor="middle">LOCAL</text>
    <text x="674" y="350" fill="#0F172A" font-family="'Segoe UI', Arial, sans-serif" font-size="28" font-weight="700">Repository</text>
    <rect x="674" y="376" width="60" height="18" rx="9" fill="#F97316"/>
    <rect x="744" y="376" width="88" height="18" rx="9" fill="#FDBA74"/>
    <rect x="674" y="408" width="188" height="10" rx="5" fill="#E2E8F0"/>
  </g>

  <g>
    <rect x="642" y="474" width="272" height="188" rx="28" fill="#FFFFFF" stroke="#E2E8F0" stroke-width="2"/>
    <rect x="674" y="510" width="112" height="34" rx="17" fill="#E8F6FD"/>
    <text x="730" y="532" fill="#0369A1" font-family="'Segoe UI', Arial, sans-serif" font-size="16" font-weight="700" text-anchor="middle">WORKFLOW</text>
    <text x="674" y="578" fill="#0F172A" font-family="'Segoe UI', Arial, sans-serif" font-size="28" font-weight="700">Working Tree</text>
    <circle cx="692" cy="622" r="8" fill="#0EA5E9"/>
    <circle cx="726" cy="622" r="8" fill="#7DD3FC"/>
    <circle cx="760" cy="622" r="8" fill="#BAE6FD"/>
    <path d="M690 622H846" stroke="#BFDBFE" stroke-width="5" stroke-linecap="round"/>
  </g>

  <g>
    <rect x="968" y="246" width="360" height="416" rx="30" fill="#FFFFFF" stroke="#E2E8F0" stroke-width="2"/>
    <rect x="1000" y="282" width="124" height="34" rx="17" fill="#ECFDF3"/>
    <text x="1062" y="304" fill="#15803D" font-family="'Segoe UI', Arial, sans-serif" font-size="16" font-weight="700" text-anchor="middle">REMOTE</text>
    <text x="1000" y="352" fill="#0F172A" font-family="'Segoe UI', Arial, sans-serif" font-size="30" font-weight="700">Git Hosting</text>
    <text x="1000" y="386" fill="#475569" font-family="'Segoe UI', Arial, sans-serif" font-size="16">GitHub / Gitea / GitLab style remote endpoint</text>
    <rect x="1000" y="430" width="296" height="164" rx="24" fill="#F8FAFC" stroke="#E2E8F0" stroke-width="2"/>
    <path d="M1040 500H1258" stroke="#22C55E" stroke-width="8" stroke-linecap="round"/>
    <circle cx="1078" cy="500" r="12" fill="#22C55E"/>
    <circle cx="1160" cy="500" r="12" fill="#86EFAC"/>
    <circle cx="1242" cy="500" r="12" fill="#BBF7D0"/>
    <text x="1040" y="554" fill="#334155" font-family="'Segoe UI', Arial, sans-serif" font-size="18">SSH key authentication</text>
    <text x="1040" y="584" fill="#334155" font-family="'Segoe UI', Arial, sans-serif" font-size="18">origin URL and push / pull path</text>
  </g>

  <path d="M586 454H642" stroke="#94A3B8" stroke-width="10" stroke-linecap="round"/>
  <path d="M914 454H968" stroke="#94A3B8" stroke-width="10" stroke-linecap="round"/>
  <path d="M778 434V474" stroke="#CBD5E1" stroke-width="8" stroke-linecap="round"/>
  <circle cx="614" cy="454" r="10" fill="#F97316"/>
  <circle cx="941" cy="454" r="10" fill="#0EA5E9"/>
  <circle cx="778" cy="454" r="10" fill="#22C55E"/>

  <g>
    <rect x="112" y="714" width="1216" height="114" rx="28" fill="#FFFFFF" stroke="#E2E8F0" stroke-width="2"/>
    <text x="148" y="758" fill="#0F172A" font-family="'Segoe UI', Arial, sans-serif" font-size="24" font-weight="700">Setup Checklist</text>
    <text x="148" y="792" fill="#475569" font-family="'Segoe UI', Arial, sans-serif" font-size="17">Install Git → configure identity → set default branch → generate SSH key → verify remote connectivity</text>
  </g>
</svg>
